Coordinates
nRows=15
nColumns=24

# SIMM Motion File Header:
name Coordinates
datacolumns 24
datarows 15
otherdata 1
range 0.56633000000000000000 0.58033000000000001000
endheader
time	pelvis_tx	pelvis_ty	pelvis_tz	pelvis_tilt	pelvis_list	pelvis_rotation	hip_flexion_r	hip_adduction_r	hip_rotation_r	knee_angle_r	ankle_angle_r	subtalar_angle_r	mtp_angle_r	hip_flexion_l	hip_adduction_l	hip_rotation_l	knee_angle_l	ankle_angle_l	subtalar_angle_l	mtp_angle_l	lumbar_extension	lumbar_bending	lumbar_rotation
      0.56633000000000000000	      1.68914270225522480000	      0.82532783294034939000	     -0.29090666545760252000	     -6.02765071126099810000	      0.45473978612526728000	      1.39272810485693440000	     32.63716333123312600000	     -0.01882279022739439700	      6.11358522576664140000	    -15.00151519293999800000	     -6.93492307414378220000	     -0.00000000000002073019	      0.00000000000006978407	     -5.16263814092359220000	      5.35004466762398590000	     -2.58142361762843600000	     -3.16198197852466300000	      7.00806102393213770000	     -0.00000000000005422790	      0.00000000000003360295	      7.49133464680095870000	     -1.34277767390722570000	      4.86774346043295750000
      0.56733000000000000000	      1.68996846864891890000	      0.82521269194871172000	     -0.29094461178383590000	     -6.02691462638024960000	      0.44752570325573005000	      1.43192358700322850000	     32.62625945897426000000	     -0.02244652240487485900	      6.06308021118751840000	    -14.80064395451320000000	     -7.04553074952737020000	     -0.00000000000002073837	      0.00000000000007005885	     -5.20170297502792330000	      5.33337540475834880000	     -2.60088566783314600000	     -3.20792937831801250000	      7.07030288887803860000	     -0.00000000000005462445	      0.00000000000003409740	      7.50625428820907280000	     -1.34668204020989450000	      4.85867848517900210000
      0.56833000000000000000	      1.69079423504261310000	      0.82509755095707416000	     -0.29098255811006929000	     -6.02617854149950110000	      0.44031162038619281000	      1.47111906914952260000	     32.61535558671539500000	     -0.02607025458235532100	      6.01257519660839450000	    -14.59977271608640400000	     -7.15613842491095830000	     -0.00000000000002074655	      0.00000000000007033362	     -5.24076780913225540000	      5.31670614189271260000	     -2.62034771803785650000	     -3.25387677811136240000	      7.13254475382393950000	     -0.00000000000005502100	      0.00000000000003459186	      7.52117392961718690000	     -1.35058640651256320000	      4.84961350992504680000
      0.56933000000000000000	      1.69162148327609190000	      0.82498258688263515000	     -0.29102009389308842000	     -6.02534225756278370000	      0.43298537992478314000	      1.51022149262049350000	     32.60434831201075700000	     -0.02958466695456533900	      5.96243046967870520000	    -14.40268843713486100000	     -7.26311726445659020000	     -0.00000000000002075462	      0.00000000000007060943	     -5.27984680607529720000	      5.29963424011056010000	     -2.63994327151926860000	     -3.29980261854709370000	      7.19272597560609220000	     -0.00000000000005541953	      0.00000000000003507155	      7.53606836483343300000	     -1.35426090572891060000	      4.84037768405716310000
      0.57033000000000000000	      1.69245021334935510000	      0.82486779972539481000	     -0.29105721913289334000	     -6.02440577457009850000	      0.42554698187150125000	      1.54923085741614170000	     32.59323763486035100000	     -0.03298975952150503400	      5.91264603039844870000	    -14.20939111765856700000	     -7.36646726816427040000	     -0.00000000000002076259	      0.00000000000007088625	     -5.31893996585705060000	      5.28215969941189200000	     -2.65967232827738260000	     -3.34570689962520660000	      7.25084655422449840000	     -0.00000000000005582005	      0.00000000000003553648	      7.55093759385780940000	     -1.35770553785893690000	      4.83097100757535270000
      0.57133000000000000000	      1.69327894342261830000	      0.82475301256815436000	     -0.29109434437269827000	     -6.02346929157741240000	      0.41810858381821941000	      1.58824022221179000000	     32.58212695770993900000	     -0.03639485208844468100	      5.86286159111819320000	    -14.01609379818227700000	     -7.46981727187194710000	     -0.00000000000002077055	      0.00000000000007116308	     -5.35803312563880410000	      5.26468515871322480000	     -2.67940138503549670000	     -3.39161118070331910000	      7.30896713284289930000	     -0.00000000000005622056	      0.00000000000003600141	      7.56580682288218660000	     -1.36115016998896320000	      4.82156433109354140000
      0.57233000000000001000	      1.69411039551794350000	      0.82463866349285964000	     -0.29113049810643515000	     -6.02241987536478710000	      0.41067720583034573000	      1.62690383617299790000	     32.57096530652972200000	     -0.03970860845159680100	      5.81415017950946030000	    -13.82977446446968500000	     -7.56778276698366880000	     -0.00000000000002076793	      0.00000000000007143036	     -5.39726370903275490000	      5.24671916551184210000	     -2.69967900751734250000	     -3.43680825830177210000	      7.35727651204989020000	     -0.00000000000005663203	      0.00000000000003644724	      7.58070323004940950000	     -1.36438998416673400000	      4.81204432469798250000
      0.57333000000000001000	      1.69494184761326850000	      0.82452431441756480000	     -0.29116665184017204000	     -6.02137045915216170000	      0.40324582784247204000	      1.66556745013420620000	     32.55980365534950500000	     -0.04302236481474892200	      5.76543876790072840000	    -13.64345513075709200000	     -7.66574826209538960000	     -0.00000000000002076530	      0.00000000000007169764	     -5.43649429242670570000	      5.22875317231046030000	     -2.71995662999918820000	     -3.48200533590022450000	      7.40558589125688100000	     -0.00000000000005704350	      0.00000000000003689308	      7.59559963721663230000	     -1.36762979834450490000	      4.80252431830242350000
      0.57433000000000001000	      1.69577557228545240000	      0.82441023540360170000	     -0.29120191953064384000	     -6.02037854398061880000	      0.39591807256573125000	      1.70387946852784580000	     32.54881035541522700000	     -0.04632994142237430900	      5.71784674326907360000	    -13.46317841807998600000	     -7.76011277783181970000	     -0.00000000000002076516	      0.00000000000007196006	     -5.47569469840875560000	      5.21049699438791600000	     -2.74068157859096790000	     -3.52647569159009500000	      7.44420956378224470000	     -0.00000000000005746526	      0.00000000000003737748	      7.61068473627581010000	     -1.37079768932835870000	      4.79297223578428970000
      0.57533000000000001000	      1.69660937026656740000	      0.82429616510129444000	     -0.29123715863907490000	     -6.01938848368136800000	      0.38859365995709155000	      1.74218014512898310000	     32.53782248616630600000	     -0.04963731868304721600	      5.67029082789474350000	    -13.28309662866209200000	     -7.85436113294323950000	     -0.00000000000002076510	      0.00000000000007222234	     -5.51489413092590470000	      5.19223145566791460000	     -2.76142095705726160000	     -3.57092260463775310000	      7.48252079415658590000	     -0.00000000000005788734	      0.00000000000003786314	      7.62577592217021130000	     -1.37396326020918270000	      4.78341911855252460000
      0.57633000000000001000	      1.69744568839267940000	      0.82418226893717783000	     -0.29127154626861795000	     -6.01860946711284410000	      0.38137809511512977000	      1.78018109323345190000	     32.52718737047563700000	     -0.05299078640355723400	      5.62407946446657190000	    -13.11005390012443800000	     -7.94457941117391990000	     -0.00000000000002076711	      0.00000000000007247269	     -5.55378762722637020000	      5.17364218783234090000	     -2.78230500345065400000	     -3.61481284771488820000	      7.51116958652410190000	     -0.00000000000005831272	      0.00000000000003833750	      7.64122991656733590000	     -1.37704817650887090000	      4.77371950326179380000
      0.57733000000000001000	      1.69828200651879140000	      0.82406837277306111000	     -0.29130593389816101000	     -6.01783045054431920000	      0.37416253027316798000	      1.81818204133792060000	     32.51655225478496900000	     -0.05634425412406726000	      5.57786810103840040000	    -12.93701117158678400000	     -8.03479768940459850000	     -0.00000000000002076911	      0.00000000000007272305	     -5.59268112352683570000	      5.15505291999676720000	     -2.80318904984404680000	     -3.65870309079202330000	      7.53981837889161620000	     -0.00000000000005873809	      0.00000000000003881187	      7.65668391096446040000	     -1.38013309280855910000	      4.76401988797106310000
      0.57833000000000001000	      1.69911967209474460000	      0.82395452773607636000	     -0.29134002648448876000	     -6.01720444738767220000	      0.36693550880342424000	      1.85613778262539310000	     32.50613128235230000000	     -0.05971960599153515500	      5.53236540301689230000	    -12.76795202702298600000	     -8.12220997966286800000	     -0.00000000000002077301	      0.00000000000007297428	     -5.63124164097289000000	      5.13621330472497380000	     -2.82381210302033200000	     -3.70263525635599190000	      7.56538286688503890000	     -0.00000000000005916622	      0.00000000000003927405	      7.67236582177311100000	     -1.38310545187706070000	      4.75410640938720340000
      0.57933000000000001000	      1.69995868512053900000	      0.82384073382622347000	     -0.29137382402760131000	     -6.01673145764290230000	      0.35969703070589859000	      1.89404831709586910000	     32.49592445317763600000	     -0.06311684200596090500	      5.48757137040204680000	    -12.60287646643304000000	     -8.20681628194872560000	     -0.00000000000002077879	      0.00000000000007322638	     -5.66946917956453240000	      5.11712334201696170000	     -2.84417416297951010000	     -3.74660934440679360000	      7.58786305050437180000	     -0.00000000000005959711	      0.00000000000003972404	      7.68827564899328570000	     -1.38596525371437610000	      4.74397906751021650000
      0.58033000000000001000	      1.70079769814633370000	      0.82372693991637058000	     -0.29140762157071382000	     -6.01625846789813320000	      0.35245855260837278000	      1.93195885156634510000	     32.48571762400296600000	     -0.06651407802038664100	      5.44277733778720220000	    -12.43780090584309800000	     -8.29142258423457970000	     -0.00000000000002078458	      0.00000000000007347848	     -5.70769671815617490000	      5.09803337930894870000	     -2.86453622293868730000	     -3.79058343245759620000	      7.61034323412370560000	     -0.00000000000006002800	      0.00000000000004017403	      7.70418547621346140000	     -1.38882505555169120000	      4.73385172563322950000
